<mxfile host="app.diagrams.net" modified="2021-01-14T21:07:23.823Z" agent="5.0 (Windows)" etag="-Z9JQ7gIc7SmAgqfgvtP" version="14.1.9" type="github">
  <diagram id="C5RBs43oDa-KdzZeNtuy" name="Page-1">
    <mxGraphModel dx="3555" dy="1838" grid="1" gridSize="10" guides="1" tooltips="1" connect="1" arrows="1" fold="1" page="1" pageScale="1" pageWidth="827" pageHeight="1169" math="0" shadow="0">
      <root>
        <mxCell id="WIyWlLk6GJQsqaUBKTNV-0" />
        <mxCell id="WIyWlLk6GJQsqaUBKTNV-1" parent="WIyWlLk6GJQsqaUBKTNV-0" />
        <mxCell id="1mXIrOWMaMzkS_SbFVk9-0" value="RadioFragment" style="swimlane;fontStyle=1;align=center;verticalAlign=top;childLayout=stackLayout;horizontal=1;startSize=40;horizontalStack=0;resizeParent=1;resizeParentMax=0;resizeLast=0;collapsible=1;marginBottom=0;fontSize=20;strokeColor=#A680B8;strokeWidth=3;" vertex="1" parent="WIyWlLk6GJQsqaUBKTNV-1">
          <mxGeometry x="880" y="1053.5" width="210" height="256" as="geometry" />
        </mxCell>
        <mxCell id="1mXIrOWMaMzkS_SbFVk9-1" value="RadioManager" style="text;strokeColor=none;fillColor=none;align=left;verticalAlign=top;spacingLeft=4;spacingRight=4;overflow=hidden;rotatable=0;points=[[0,0.5],[1,0.5]];portConstraint=eastwest;" vertex="1" parent="1mXIrOWMaMzkS_SbFVk9-0">
          <mxGeometry y="40" width="210" height="26" as="geometry" />
        </mxCell>
        <mxCell id="1mXIrOWMaMzkS_SbFVk9-2" value="radioFragmentListener" style="text;strokeColor=none;fillColor=none;align=left;verticalAlign=top;spacingLeft=4;spacingRight=4;overflow=hidden;rotatable=0;points=[[0,0.5],[1,0.5]];portConstraint=eastwest;" vertex="1" parent="1mXIrOWMaMzkS_SbFVk9-0">
          <mxGeometry y="66" width="210" height="26" as="geometry" />
        </mxCell>
        <mxCell id="1mXIrOWMaMzkS_SbFVk9-3" value="lv_radios::ListView" style="text;strokeColor=none;fillColor=none;align=left;verticalAlign=top;spacingLeft=4;spacingRight=4;overflow=hidden;rotatable=0;points=[[0,0.5],[1,0.5]];portConstraint=eastwest;" vertex="1" parent="1mXIrOWMaMzkS_SbFVk9-0">
          <mxGeometry y="92" width="210" height="26" as="geometry" />
        </mxCell>
        <mxCell id="1mXIrOWMaMzkS_SbFVk9-4" value="" style="line;strokeWidth=1;fillColor=none;align=left;verticalAlign=middle;spacingTop=-1;spacingLeft=3;spacingRight=3;rotatable=0;labelPosition=right;points=[];portConstraint=eastwest;" vertex="1" parent="1mXIrOWMaMzkS_SbFVk9-0">
          <mxGeometry y="118" width="210" height="8" as="geometry" />
        </mxCell>
        <mxCell id="1mXIrOWMaMzkS_SbFVk9-5" value="RadioFragment" style="text;strokeColor=none;fillColor=none;align=left;verticalAlign=top;spacingLeft=4;spacingRight=4;overflow=hidden;rotatable=0;points=[[0,0.5],[1,0.5]];portConstraint=eastwest;" vertex="1" parent="1mXIrOWMaMzkS_SbFVk9-0">
          <mxGeometry y="126" width="210" height="26" as="geometry" />
        </mxCell>
        <mxCell id="1mXIrOWMaMzkS_SbFVk9-6" value="newInstance" style="text;strokeColor=none;fillColor=none;align=left;verticalAlign=top;spacingLeft=4;spacingRight=4;overflow=hidden;rotatable=0;points=[[0,0.5],[1,0.5]];portConstraint=eastwest;" vertex="1" parent="1mXIrOWMaMzkS_SbFVk9-0">
          <mxGeometry y="152" width="210" height="26" as="geometry" />
        </mxCell>
        <mxCell id="1mXIrOWMaMzkS_SbFVk9-7" value="onCreate" style="text;strokeColor=none;fillColor=none;align=left;verticalAlign=top;spacingLeft=4;spacingRight=4;overflow=hidden;rotatable=0;points=[[0,0.5],[1,0.5]];portConstraint=eastwest;" vertex="1" parent="1mXIrOWMaMzkS_SbFVk9-0">
          <mxGeometry y="178" width="210" height="26" as="geometry" />
        </mxCell>
        <mxCell id="1mXIrOWMaMzkS_SbFVk9-8" value="onCreateView" style="text;strokeColor=none;fillColor=none;align=left;verticalAlign=top;spacingLeft=4;spacingRight=4;overflow=hidden;rotatable=0;points=[[0,0.5],[1,0.5]];portConstraint=eastwest;" vertex="1" parent="1mXIrOWMaMzkS_SbFVk9-0">
          <mxGeometry y="204" width="210" height="26" as="geometry" />
        </mxCell>
        <mxCell id="1mXIrOWMaMzkS_SbFVk9-9" value="startRadioList" style="text;strokeColor=none;fillColor=none;align=left;verticalAlign=top;spacingLeft=4;spacingRight=4;overflow=hidden;rotatable=0;points=[[0,0.5],[1,0.5]];portConstraint=eastwest;" vertex="1" parent="1mXIrOWMaMzkS_SbFVk9-0">
          <mxGeometry y="230" width="210" height="26" as="geometry" />
        </mxCell>
        <mxCell id="1mXIrOWMaMzkS_SbFVk9-10" value="RadioManager" style="swimlane;fontStyle=1;align=center;verticalAlign=top;childLayout=stackLayout;horizontal=1;startSize=40;horizontalStack=0;resizeParent=1;resizeParentMax=0;resizeLast=0;collapsible=1;marginBottom=0;fontSize=20;strokeColor=#A680B8;strokeWidth=3;" vertex="1" parent="WIyWlLk6GJQsqaUBKTNV-1">
          <mxGeometry x="1150" y="1131.5" width="180" height="178" as="geometry" />
        </mxCell>
        <mxCell id="1mXIrOWMaMzkS_SbFVk9-11" value="Context" style="text;strokeColor=none;fillColor=none;align=left;verticalAlign=top;spacingLeft=4;spacingRight=4;overflow=hidden;rotatable=0;points=[[0,0.5],[1,0.5]];portConstraint=eastwest;" vertex="1" parent="1mXIrOWMaMzkS_SbFVk9-10">
          <mxGeometry y="40" width="180" height="26" as="geometry" />
        </mxCell>
        <mxCell id="1mXIrOWMaMzkS_SbFVk9-12" value="List&lt;Radio&gt; radios" style="text;strokeColor=none;fillColor=none;align=left;verticalAlign=top;spacingLeft=4;spacingRight=4;overflow=hidden;rotatable=0;points=[[0,0.5],[1,0.5]];portConstraint=eastwest;" vertex="1" parent="1mXIrOWMaMzkS_SbFVk9-10">
          <mxGeometry y="66" width="180" height="26" as="geometry" />
        </mxCell>
        <mxCell id="1mXIrOWMaMzkS_SbFVk9-13" value="" style="line;strokeWidth=1;fillColor=none;align=left;verticalAlign=middle;spacingTop=-1;spacingLeft=3;spacingRight=3;rotatable=0;labelPosition=right;points=[];portConstraint=eastwest;" vertex="1" parent="1mXIrOWMaMzkS_SbFVk9-10">
          <mxGeometry y="92" width="180" height="8" as="geometry" />
        </mxCell>
        <mxCell id="1mXIrOWMaMzkS_SbFVk9-14" value="RadioManager" style="text;strokeColor=none;fillColor=none;align=left;verticalAlign=top;spacingLeft=4;spacingRight=4;overflow=hidden;rotatable=0;points=[[0,0.5],[1,0.5]];portConstraint=eastwest;" vertex="1" parent="1mXIrOWMaMzkS_SbFVk9-10">
          <mxGeometry y="100" width="180" height="26" as="geometry" />
        </mxCell>
        <mxCell id="1mXIrOWMaMzkS_SbFVk9-15" value="loadRadiosFromDB" style="text;strokeColor=none;fillColor=none;align=left;verticalAlign=top;spacingLeft=4;spacingRight=4;overflow=hidden;rotatable=0;points=[[0,0.5],[1,0.5]];portConstraint=eastwest;" vertex="1" parent="1mXIrOWMaMzkS_SbFVk9-10">
          <mxGeometry y="126" width="180" height="26" as="geometry" />
        </mxCell>
        <mxCell id="1mXIrOWMaMzkS_SbFVk9-16" value="getRadios::List&lt;Radio&gt;" style="text;strokeColor=none;fillColor=none;align=left;verticalAlign=top;spacingLeft=4;spacingRight=4;overflow=hidden;rotatable=0;points=[[0,0.5],[1,0.5]];portConstraint=eastwest;" vertex="1" parent="1mXIrOWMaMzkS_SbFVk9-10">
          <mxGeometry y="152" width="180" height="26" as="geometry" />
        </mxCell>
        <mxCell id="1mXIrOWMaMzkS_SbFVk9-17" value="RadioListAdapter" style="swimlane;fontStyle=1;align=center;verticalAlign=top;childLayout=stackLayout;horizontal=1;startSize=39;horizontalStack=0;resizeParent=1;resizeParentMax=0;resizeLast=0;collapsible=1;marginBottom=0;fontSize=20;strokeWidth=3;strokeColor=#A680B8;" vertex="1" parent="WIyWlLk6GJQsqaUBKTNV-1">
          <mxGeometry x="305" y="1132.5" width="234.5" height="151" as="geometry" />
        </mxCell>
        <mxCell id="1mXIrOWMaMzkS_SbFVk9-18" value="context" style="text;strokeColor=none;fillColor=none;align=left;verticalAlign=top;spacingLeft=4;spacingRight=4;overflow=hidden;rotatable=0;points=[[0,0.5],[1,0.5]];portConstraint=eastwest;" vertex="1" parent="1mXIrOWMaMzkS_SbFVk9-17">
          <mxGeometry y="39" width="234.5" height="26" as="geometry" />
        </mxCell>
        <mxCell id="1mXIrOWMaMzkS_SbFVk9-19" value="layoutinflater" style="text;strokeColor=none;fillColor=none;align=left;verticalAlign=top;spacingLeft=4;spacingRight=4;overflow=hidden;rotatable=0;points=[[0,0.5],[1,0.5]];portConstraint=eastwest;" vertex="1" parent="1mXIrOWMaMzkS_SbFVk9-17">
          <mxGeometry y="65" width="234.5" height="26" as="geometry" />
        </mxCell>
        <mxCell id="1mXIrOWMaMzkS_SbFVk9-20" value="List&lt;Radio&gt; radioList;" style="text;strokeColor=none;fillColor=none;align=left;verticalAlign=top;spacingLeft=4;spacingRight=4;overflow=hidden;rotatable=0;points=[[0,0.5],[1,0.5]];portConstraint=eastwest;" vertex="1" parent="1mXIrOWMaMzkS_SbFVk9-17">
          <mxGeometry y="91" width="234.5" height="26" as="geometry" />
        </mxCell>
        <mxCell id="1mXIrOWMaMzkS_SbFVk9-21" value="" style="line;strokeWidth=1;fillColor=none;align=left;verticalAlign=middle;spacingTop=-1;spacingLeft=3;spacingRight=3;rotatable=0;labelPosition=right;points=[];portConstraint=eastwest;" vertex="1" parent="1mXIrOWMaMzkS_SbFVk9-17">
          <mxGeometry y="117" width="234.5" height="8" as="geometry" />
        </mxCell>
        <mxCell id="1mXIrOWMaMzkS_SbFVk9-22" value="getView(...)" style="text;strokeColor=none;fillColor=none;align=left;verticalAlign=top;spacingLeft=4;spacingRight=4;overflow=hidden;rotatable=0;points=[[0,0.5],[1,0.5]];portConstraint=eastwest;" vertex="1" parent="1mXIrOWMaMzkS_SbFVk9-17">
          <mxGeometry y="125" width="234.5" height="26" as="geometry" />
        </mxCell>
        <mxCell id="1mXIrOWMaMzkS_SbFVk9-23" value="RadioFragmentListener" style="swimlane;fontStyle=1;align=center;verticalAlign=top;childLayout=stackLayout;horizontal=1;startSize=40;horizontalStack=0;resizeParent=1;resizeParentMax=0;resizeLast=0;collapsible=1;marginBottom=0;strokeWidth=3;fontSize=20;strokeColor=#A680B8;" vertex="1" parent="WIyWlLk6GJQsqaUBKTNV-1">
          <mxGeometry x="580" y="1157.5" width="260" height="230" as="geometry" />
        </mxCell>
        <mxCell id="1mXIrOWMaMzkS_SbFVk9-24" value="Radiolist::List&lt;Radio&gt;" style="text;strokeColor=none;fillColor=none;align=left;verticalAlign=top;spacingLeft=4;spacingRight=4;overflow=hidden;rotatable=0;points=[[0,0.5],[1,0.5]];portConstraint=eastwest;" vertex="1" parent="1mXIrOWMaMzkS_SbFVk9-23">
          <mxGeometry y="40" width="260" height="26" as="geometry" />
        </mxCell>
        <mxCell id="1mXIrOWMaMzkS_SbFVk9-25" value="radioFragment" style="text;strokeColor=none;fillColor=none;align=left;verticalAlign=top;spacingLeft=4;spacingRight=4;overflow=hidden;rotatable=0;points=[[0,0.5],[1,0.5]];portConstraint=eastwest;" vertex="1" parent="1mXIrOWMaMzkS_SbFVk9-23">
          <mxGeometry y="66" width="260" height="26" as="geometry" />
        </mxCell>
        <mxCell id="1mXIrOWMaMzkS_SbFVk9-26" value="radioListAdapter" style="text;strokeColor=none;fillColor=none;align=left;verticalAlign=top;spacingLeft=4;spacingRight=4;overflow=hidden;rotatable=0;points=[[0,0.5],[1,0.5]];portConstraint=eastwest;" vertex="1" parent="1mXIrOWMaMzkS_SbFVk9-23">
          <mxGeometry y="92" width="260" height="26" as="geometry" />
        </mxCell>
        <mxCell id="1mXIrOWMaMzkS_SbFVk9-27" value="" style="line;strokeWidth=1;fillColor=none;align=left;verticalAlign=middle;spacingTop=-1;spacingLeft=3;spacingRight=3;rotatable=0;labelPosition=right;points=[];portConstraint=eastwest;" vertex="1" parent="1mXIrOWMaMzkS_SbFVk9-23">
          <mxGeometry y="118" width="260" height="8" as="geometry" />
        </mxCell>
        <mxCell id="1mXIrOWMaMzkS_SbFVk9-28" value="onItemClick" style="text;strokeColor=none;fillColor=none;align=left;verticalAlign=top;spacingLeft=4;spacingRight=4;overflow=hidden;rotatable=0;points=[[0,0.5],[1,0.5]];portConstraint=eastwest;" vertex="1" parent="1mXIrOWMaMzkS_SbFVk9-23">
          <mxGeometry y="126" width="260" height="26" as="geometry" />
        </mxCell>
        <mxCell id="1mXIrOWMaMzkS_SbFVk9-29" value="setAdapter" style="text;strokeColor=none;fillColor=none;align=left;verticalAlign=top;spacingLeft=4;spacingRight=4;overflow=hidden;rotatable=0;points=[[0,0.5],[1,0.5]];portConstraint=eastwest;" vertex="1" parent="1mXIrOWMaMzkS_SbFVk9-23">
          <mxGeometry y="152" width="260" height="26" as="geometry" />
        </mxCell>
        <mxCell id="1mXIrOWMaMzkS_SbFVk9-30" value="startRadioList" style="text;strokeColor=none;fillColor=none;align=left;verticalAlign=top;spacingLeft=4;spacingRight=4;overflow=hidden;rotatable=0;points=[[0,0.5],[1,0.5]];portConstraint=eastwest;" vertex="1" parent="1mXIrOWMaMzkS_SbFVk9-23">
          <mxGeometry y="178" width="260" height="26" as="geometry" />
        </mxCell>
        <mxCell id="1mXIrOWMaMzkS_SbFVk9-31" value="getRadioList()::List&lt;Radio&gt;" style="text;strokeColor=none;fillColor=none;align=left;verticalAlign=top;spacingLeft=4;spacingRight=4;overflow=hidden;rotatable=0;points=[[0,0.5],[1,0.5]];portConstraint=eastwest;" vertex="1" parent="1mXIrOWMaMzkS_SbFVk9-23">
          <mxGeometry y="204" width="260" height="26" as="geometry" />
        </mxCell>
        <mxCell id="1mXIrOWMaMzkS_SbFVk9-32" style="edgeStyle=orthogonalEdgeStyle;rounded=0;orthogonalLoop=1;jettySize=auto;html=1;entryX=0.5;entryY=0;entryDx=0;entryDy=0;fontSize=20;fontColor=#000000;" edge="1" parent="WIyWlLk6GJQsqaUBKTNV-1" source="1mXIrOWMaMzkS_SbFVk9-2" target="1mXIrOWMaMzkS_SbFVk9-23">
          <mxGeometry relative="1" as="geometry" />
        </mxCell>
        <mxCell id="1mXIrOWMaMzkS_SbFVk9-33" style="edgeStyle=orthogonalEdgeStyle;rounded=0;orthogonalLoop=1;jettySize=auto;html=1;entryX=0.5;entryY=0;entryDx=0;entryDy=0;fontSize=20;fontColor=#000000;" edge="1" parent="WIyWlLk6GJQsqaUBKTNV-1" source="1mXIrOWMaMzkS_SbFVk9-26" target="1mXIrOWMaMzkS_SbFVk9-17">
          <mxGeometry relative="1" as="geometry" />
        </mxCell>
        <mxCell id="1mXIrOWMaMzkS_SbFVk9-34" style="edgeStyle=orthogonalEdgeStyle;rounded=0;orthogonalLoop=1;jettySize=auto;html=1;entryX=0.5;entryY=0;entryDx=0;entryDy=0;fontSize=20;fontColor=#000000;" edge="1" parent="WIyWlLk6GJQsqaUBKTNV-1" source="1mXIrOWMaMzkS_SbFVk9-1" target="1mXIrOWMaMzkS_SbFVk9-10">
          <mxGeometry relative="1" as="geometry" />
        </mxCell>
      </root>
    </mxGraphModel>
  </diagram>
</mxfile>
